<svg id="filled_outline" height="512" viewBox="0 0 512 512" width="512" xmlns="http://www.w3.org/2000/svg" data-name="filled outline"><path d="m248 440h-144a32 32 0 0 1 -32-32v-312a32 32 0 0 1 32-32h144z" fill="#486be0"/><path d="m488 160v248a32 32 0 0 1 -32 32h-208v-280z" fill="#548aff"/><path d="m248 160v-96a32 32 0 0 1 32-32h176a32 32 0 0 1 32 32v96l-64 16v.00006a55.99994 55.99994 0 0 1 -55.99994 55.99994h-.00012a55.99994 55.99994 0 0 1 -55.99994-55.99994v-.00006z" fill="#517ef7"/><circle cx="368" cy="176" fill="#486be0" r="24"/><path d="m296 64h144v56h-144z" fill="#84d8e8"/><g fill="#517ef7"><rect height="48" rx="24" width="48" x="296" y="264"/><rect height="48" rx="24" width="48" x="344" y="264"/><rect height="48" rx="24" width="48" x="392" y="264"/><rect height="48" rx="24" width="48" x="296" y="312"/><rect height="48" rx="24" width="48" x="344" y="312"/><rect height="48" rx="24" width="48" x="392" y="312"/><rect height="48" rx="24" width="48" x="296" y="360"/><rect height="48" rx="24" width="48" x="344" y="360"/><rect height="48" rx="24" width="48" x="392" y="360"/></g><path d="m208 321.54062 5.71126 14.27815a32 32 0 0 1 2.28874 11.8845v25.83737a32 32 0 0 1 -32 32h-48a32 32 0 0 1 -32-32v-25.83737a32 32 0 0 1 2.28875-11.8845l5.71125-14.27815a111.85164 111.85164 0 0 0 8-41.54062v-58.45936a111.8516 111.8516 0 0 0 -8-41.54064 111.8516 111.8516 0 0 1 -8-41.54062v-10.45938a32 32 0 0 1 32-32h48a32 32 0 0 1 32 32v10.45936a111.8516 111.8516 0 0 1 -8 41.54064 111.8516 111.8516 0 0 0 -8 41.54062v58.45938a111.85164 111.85164 0 0 0 8 41.54062z" fill="#548aff"/><path d="m456 24h-176a40.068 40.068 0 0 0 -39.19507 32h-136.80493a40.04552 40.04552 0 0 0 -40 40v248h-8a40.04552 40.04552 0 0 0 -40 40v28a75.98846 75.98846 0 0 0 142.91437 36h297.08563a40.04552 40.04552 0 0 0 40-40v-344a40.04552 40.04552 0 0 0 -40-40zm-176 16h176a24.02718 24.02718 0 0 1 24 24v89.75415l-57.94043 14.48511a7.9992 7.9992 0 0 0 -6.05957 7.76074 48 48 0 0 1 -96 0 7.9992 7.9992 0 0 0 -6.05957-7.76074l-57.94043-14.48511v-89.75415a24.02718 24.02718 0 0 1 24-24zm-188 432a60.06812 60.06812 0 0 1 -60-60v-28a24.02718 24.02718 0 0 1 24-24h8v48a40.04552 40.04552 0 0 0 40 40h35.96716a59.9435 59.9435 0 0 1 -47.96716 24zm27.42773-294.9707a103.402 103.402 0 0 1 -7.42773-38.5703v-10.459a24.02718 24.02718 0 0 1 24-24h48a24.02718 24.02718 0 0 1 24 24v10.459a103.402 103.402 0 0 1 -7.42773 38.57032 119.32831 119.32831 0 0 0 -8.57227 44.51168v58.459a119.32835 119.32835 0 0 0 8.57227 44.51172v.001l5.71093 14.27636a23.90226 23.90226 0 0 1 1.7168 8.91404v25.83788a24.02719 24.02719 0 0 1 -24 24h-16v-13.541a8 8 0 0 0 -16 0v13.541h-16a24.02719 24.02719 0 0 1 -24-24v-25.8379a23.90274 23.90274 0 0 1 1.71631-8.91308l5.71142-14.27832a119.32835 119.32835 0 0 0 8.57227-44.5117v-58.459a119.32831 119.32831 0 0 0 -8.57227-44.5117zm64.57227 236.5117a40.04552 40.04552 0 0 0 40-40v-25.8379a39.84054 39.84054 0 0 0 -2.86084-14.85644l-5.71143-14.27637a103.402 103.402 0 0 1 -7.42773-38.57029v-58.459a103.402 103.402 0 0 1 7.42773-38.57032 119.32831 119.32831 0 0 0 8.57227-44.51168v-10.459a40.04552 40.04552 0 0 0 -40-40h-48a40.04552 40.04552 0 0 0 -40 40v10.459a119.32831 119.32831 0 0 0 8.57227 44.51172 103.402 103.402 0 0 1 7.42773 38.57028v58.459a103.39329 103.39329 0 0 1 -7.42773 38.56934l-5.71192 14.27832a39.841 39.841 0 0 0 -2.86035 14.85546v25.83788a40.04552 40.04552 0 0 0 40 40h15.96088a59.66465 59.66465 0 0 1 -3.40119 18.459h-44.55969a24.02718 24.02718 0 0 1 -24-24v-312a24.02718 24.02718 0 0 1 24-24h136v360h-74.68964a75.741 75.741 0 0 0 2.65058-18.459zm272 18.459h-200v-261.75415l48.31006 12.07739a64.0034 64.0034 0 0 0 127.37988 0l48.31006-12.07739v237.75415a24.02718 24.02718 0 0 1 -24 24z"/><path d="m368 144a32 32 0 1 0 32 32 32.03635 32.03635 0 0 0 -32-32zm0 48a16 16 0 1 1 16-16 16.01833 16.01833 0 0 1 -16 16z"/><path d="m296 128h144a8.00008 8.00008 0 0 0 8-8v-56a8.00008 8.00008 0 0 0 -8-8h-144a8.00008 8.00008 0 0 0 -8 8v56a8.00008 8.00008 0 0 0 8 8zm8-56h128v40h-128z"/><path d="m448 288a31.97943 31.97943 0 0 0 -56-21.13208 31.934 31.934 0 0 0 -48 0 31.97944 31.97944 0 1 0 -45.13214 45.13208 31.93409 31.93409 0 0 0 0 48 31.97945 31.97945 0 1 0 45.13214 45.13208 31.934 31.934 0 0 0 48 0 31.97944 31.97944 0 1 0 45.13214-45.13208 31.93409 31.93409 0 0 0 0-48 31.92538 31.92538 0 0 0 10.86786-24zm-80-16a16 16 0 1 1 -16 16 16.01833 16.01833 0 0 1 16-16zm0 80a16 16 0 1 1 16-16 16.01833 16.01833 0 0 1 -16 16zm-64-64a16 16 0 1 1 16 16 16.01833 16.01833 0 0 1 -16-16zm0 48a16 16 0 1 1 16 16 16.01833 16.01833 0 0 1 -16-16zm16 64a16 16 0 1 1 16-16 16.01833 16.01833 0 0 1 -16 16zm48 0a16 16 0 1 1 16-16 16.01833 16.01833 0 0 1 -16 16zm64-16a16 16 0 1 1 -16-16 16.01833 16.01833 0 0 1 16 16zm0-48a16 16 0 1 1 -16-16 16.01833 16.01833 0 0 1 16 16zm-32-48a16 16 0 1 1 16 16 16.01833 16.01833 0 0 1 -16-16z"/></svg>